# xmcd CD database file
#
# Track frame offsets:
#	150
#	33990
#	64858
#	94987
#	127147
#	159385
#	198785
#	223969
#	239328
#
# Disc length: 3993 seconds
#
# Revision: 0
# Processed by: cddbd v1.5.2PL0 Copyright (c) Steve Scherf et al.
# Submitted via: CDex 1.70beta2
#
DISCID=820f9709
DTITLE=Various Artist - Jazz Nights, Selection 2
DYEAR=2008
DGENRE=Jazz
TTITLE0=Marc Mangen, Afrodisax - Low burnt fire
TTITLE1=Marc Mangen, Afrodisax - Forests ancient as the hills
TTITLE2=Damien Prud'Homme - Manaos
TTITLE3=Damien Prud'Homme - Eulalie
TTITLE4=Georg Ruby, Village Zone, Michel Pilz - Movimento
TTITLE5=Georg Ruby, Village Zone, Michel Pilz - Melusina
TTITLE6=Leana Sealy - The man who sold the world
TTITLE7=Leana Sealy - Scrapple from the apple
TTITLE8=Paul Wiltgen Group - Alone
EXTD=YEAR: 2008
EXTT0=
EXTT1=
EXTT2=
EXTT3=
EXTT4=
EXTT5=
EXTT6=
EXTT7=
EXTT8=
PLAYORDER=
